<?xml version="1.0" encoding="UTF-8"?>
<!DOCTYPE svg PUBLIC "-//W3C//DTD SVG 1.0//EN" "http://www.w3.org/TR/2001/REC-SVG-20010904/DTD/svg10.dtd">
<!-- Creator: CorelDRAW -->
<svg xmlns="http://www.w3.org/2000/svg" xml:space="preserve" width="61.2209mm" height="76.066mm" version="1.0" shape-rendering="geometricPrecision" text-rendering="geometricPrecision" image-rendering="optimizeQuality" fill-rule="evenodd" clip-rule="evenodd"
viewBox="0 0 7359.44 9143.98"
 xmlns:xlink="http://www.w3.org/1999/xlink"
 xmlns:xodm="http://www.corel.com/coreldraw/odm/2003">
 <g id="Camada_x0020_1">
  <metadata id="CorelCorpID_0Corel-Layer"/>
  <path fill="white" fill-rule="nonzero" d="M2918.43 1922.27c7.68,-382.79 115.82,-810.92 289.62,-1161.34 21.51,-43.36 44.08,-85.6 67.64,-126.51 11.22,22.12 21.67,45.85 31.44,71.21 30.5,79.21 52.54,168.61 68.86,262.43 -130.92,298.56 -211.13,643.42 -217.86,954.2l-239.7 0zm732.74 -1742c122.62,-95.96 256.46,-157.04 398.09,-170.5 11.43,-1.07 22.26,-1.84 32.49,-2.28 929.42,-40.07 969.18,780.23 1008.24,1586.04 5.35,110.62 10.7,220.96 18.7,328.74l-240.53 0c-7.31,-103.78 -12.48,-210.49 -17.66,-317.47 -33.32,-687.62 -67.27,-1387.62 -758.41,-1357.83 -7.41,0.31 -14.2,0.78 -20.28,1.35 -102.4,9.73 -201.69,58.59 -294.84,136.3 -36.18,-76.95 -78.26,-144.91 -125.8,-204.35z"/>
  <path fill="white" d="M546.53 2035.73l-546.53 6776.34 5534.76 331.92 86.36 -7019.44 -1611.37 -28.2c7.74,63.45 17.44,126.08 29.9,187.14 16.59,81.31 43.14,183.54 90.28,266.6 65.19,12.39 123.35,48.71 167.27,100.82l3.59 4.6c50.24,61.75 81.47,145.66 81.47,236.49 0,93.27 -32.67,178.62 -85.06,240.79 -54.98,65.21 -131.85,105.94 -217.05,105.94 -85.36,0 -162.21,-40.45 -217.2,-105.8 -29.82,-35.38 -53.25,-78.32 -67.91,-125.95 -222.9,-231.19 -301.44,-580.75 -335.47,-920.29l-1414.48 -24.75c5.28,81.62 17.43,162.22 39.03,237.5 26.46,92.24 68.03,178.33 136.86,233.56 30.47,-11.92 63.11,-18.42 97.09,-18.42 85.51,0 162.37,40.45 217.34,105.51l3.61 4.6c50.24,61.74 81.47,145.66 81.47,236.62 0,93.27 -32.67,178.63 -85.07,240.81 -54.97,65.35 -131.98,105.94 -217.34,105.94 -85.21,0 -162.07,-40.74 -217.05,-105.94 -5.94,-7.04 -11.62,-14.4 -17.03,-22.02 -268.38,-105.44 -440.17,-337.28 -524.36,-630.74 -36.52,-127.26 -55.25,-261.83 -60.95,-397l-952.16 -16.66z"/>
  <polygon fill="white" points="6922.3,2227.89 7359.44,8713.76 5766.49,9082.39 5825.51,2242.27 6379.23,2592.76 "/>
  <path fill="white" fill-rule="nonzero" d="M2335.56 2742.55c65.61,9.59 111.03,70.56 101.43,136.18 -9.59,65.61 -70.56,111.03 -136.18,101.43 -317.53,-46.39 -506.73,-267.15 -594.46,-572.87 -57.87,-201.73 -69.67,-441.81 -43.95,-690.46 25.33,-244.8 86.92,-498.58 176.46,-731.91 203.85,-531.35 558.24,-965.56 974.5,-983.51 929.42,-40.07 969.17,780.23 1008.22,1586.04 24.91,514.17 49.53,1021.63 324.68,1204.56 55.24,36.56 70.36,110.99 33.8,166.23 -36.56,55.24 -110.99,70.36 -166.23,33.8 -376.32,-250.2 -403.86,-818.01 -431.74,-1393.32 -33.32,-687.62 -67.26,-1387.62 -758.4,-1357.83 -308.21,13.3 -587.87,379.86 -760.38,829.49 -82.62,215.32 -139.31,447.97 -162.37,670.86 -22.66,219.05 -12.99,428.05 36.42,600.3 61.87,215.65 189.15,370.45 398.18,400.99z"/>
 </g>
</svg>
